<svg xmlns="http://www.w3.org/2000/svg" xmlns:xlink="http://www.w3.org/1999/xlink" version="1.1" id="Layer_1" x="0px" y="0px" viewBox="0 0 512 512" style="enable-background:new 0 0 512 512;" xml:space="preserve">
    <g id="XMLID_1_">
        <path id="XMLID_7_" d="M366.3,469.1c0-2.4-2.4-4.7-4.7-4.7l-25.3-2.4c-13.4-3.2-23.7-18.9-25.3-32.4l-1.6-8.7H203.7l-0.8,8.7   c-2.4,14.2-11.8,29.2-25.3,32.4l-25.3,2.4c-2.4,0.8-4.7,2.4-4.7,4.7c-0.8,3.2,2.4,6.3,5.5,6.3h208.4   C364,476.2,367.1,473,366.3,469.1L366.3,469.1z M505.3,44.4c-5.5-5.5-12.6-7.9-19.7-7.9H27.6c-7.1,0-14.2,3.2-19.7,7.9   C2.4,49.9,0,57,0,64.1v311.8c0,7.1,3.2,14.2,7.9,19.7c5.5,5.5,11.8,7.9,18.9,7.9h457.9c7.1,0,14.2-3.2,18.9-7.9   c5.5-5.5,7.9-12.6,7.9-19.7V63.3C513.2,56.2,510,49.1,505.3,44.4z M256.6,375.2c-4.7,0-9.5-3.9-9.5-9.5c0-4.7,3.9-9.5,9.5-9.5   s9.5,3.9,9.5,9.5S261.3,375.2,256.6,375.2z M490.3,329.4H22.9c-2.4,0-4.7-2.4-4.7-4.7V68c0-7.9,6.3-13.4,13.4-13.4H480   c7.9,0,13.4,6.3,13.4,13.4v256.6C495,327,492.6,329.4,490.3,329.4z"/>
    </g>
    </svg>